<svg xmlns="http://www.w3.org/2000/svg" width="19" height="19" viewBox="0 0 19 19">
  <path id="settings_FILL0_wght400_GRAD0_opsz48" d="M87.315-861l-.475-2.992a6.372,6.372,0,0,1-.95-.451,6.512,6.512,0,0,1-.879-.594l-2.8,1.283L80-867.65l2.565-1.876a2.828,2.828,0,0,1-.059-.487q-.012-.273-.012-.487t.012-.487a2.827,2.827,0,0,1,.059-.487L80-873.35l2.209-3.9,2.8,1.283a6.524,6.524,0,0,1,.879-.594,4.917,4.917,0,0,1,.95-.428L87.315-880h4.37l.475,2.993a7.67,7.67,0,0,1,.962.44,4.076,4.076,0,0,1,.867.606l2.8-1.283L99-873.35l-2.565,1.829a3.351,3.351,0,0,1,.059.511q.012.273.012.51t-.012.5a3.31,3.31,0,0,1-.059.5L99-867.65l-2.209,3.9-2.8-1.283a7.859,7.859,0,0,1-.867.606,4.142,4.142,0,0,1-.962.44L91.685-861Zm2.185-6.413a2.977,2.977,0,0,0,2.185-.9,2.977,2.977,0,0,0,.9-2.185,2.976,2.976,0,0,0-.9-2.185,2.976,2.976,0,0,0-2.185-.9,2.976,2.976,0,0,0-2.185.9,2.976,2.976,0,0,0-.9,2.185,2.977,2.977,0,0,0,.9,2.185A2.976,2.976,0,0,0,89.5-867.413Zm0-1.425a1.6,1.6,0,0,1-1.176-.487,1.6,1.6,0,0,1-.487-1.176,1.6,1.6,0,0,1,.487-1.176,1.6,1.6,0,0,1,1.176-.487,1.6,1.6,0,0,1,1.176.487,1.6,1.6,0,0,1,.487,1.176,1.6,1.6,0,0,1-.487,1.176A1.6,1.6,0,0,1,89.5-868.838ZM89.5-870.5Zm-1.045,8.075h2.09l.332-2.66a5.6,5.6,0,0,0,1.484-.594,6.1,6.1,0,0,0,1.271-.974l2.518,1.092.95-1.71-2.232-1.639q.1-.4.154-.8a5.3,5.3,0,0,0,.059-.8,6.607,6.607,0,0,0-.048-.8,4.913,4.913,0,0,0-.166-.8L97.1-873.73l-.95-1.71-2.518,1.092a5.3,5.3,0,0,0-1.235-1.033,4.01,4.01,0,0,0-1.52-.534l-.332-2.66h-2.09l-.333,2.66a5.036,5.036,0,0,0-1.508.57,5.241,5.241,0,0,0-1.247,1L82.85-875.44l-.95,1.71,2.233,1.639q-.1.4-.154.8a5.305,5.305,0,0,0-.059.8,5.3,5.3,0,0,0,.059.8q.059.392.154.8L81.9-867.27l.95,1.71,2.517-1.092a6.1,6.1,0,0,0,1.271.974,5.6,5.6,0,0,0,1.484.594Z" transform="translate(-80 880)" fill="#838383"/>
</svg>
